<svg viewBox="0 0 671.165 321" xmlns="http://www.w3.org/2000/svg" width="671.165039" height="321.000000" fill="none">
	<g id="logo">
		<g id="left-bars">
			<rect width="50" height="200" rx="25" fill="rgb(33,50,112)" transform="matrix(0.707107,0.707107,-0.707107,0.707107,141.81,19)" />
			<rect width="50" height="200" rx="25" fill="rgb(33,50,112)" transform="matrix(0.707107,-0.707107,0.707107,0.707107,0,160.967)" />
		</g>
		<g id="right-bars">
			<rect width="50" height="200" rx="25" fill="rgb(33,50,112)" transform="matrix(-0.707107,0.707107,0.707107,0.707107,529.355,19)" />
			<rect width="50" height="200" rx="25" fill="rgb(33,50,112)" transform="matrix(-0.707107,-0.707107,-0.707107,0.707107,671.165,160.967)" />
		</g>
		<path id="cup" d="M455.402 0L215.598 0C210.953 0 207.285 3.94298 207.619 8.57608L229.639 313.576C229.941 317.76 233.424 321 237.618 321L433.382 321C437.576 321 441.059 317.76 441.361 313.576L463.381 8.57608C463.715 3.94298 460.047 0 455.402 0ZM285.388 246.991C273.431 240.087 269.334 224.798 276.238 212.84L351.238 82.9364C358.141 70.9791 373.431 66.8822 385.388 73.7858C397.346 80.6894 401.443 95.9791 394.539 107.936L319.539 237.84C312.635 249.798 297.346 253.894 285.388 246.991Z" fill="rgb(33,50,112)" fill-rule="evenodd" />
	</g>
</svg>
